<svg version="1.1" id="Layer_1" xmlns="http://www.w3.org/2000/svg" xmlns:xlink="http://www.w3.org/1999/xlink" x="0px" y="0px"
	 width="100%" viewBox="0 0 2000 606" enable-background="new 0 0 2000 606" xml:space="preserve">
<path fill="#FFFFFF" opacity="1.000000" stroke="none" 
	d="
M1073.000000,0.999993 
	C1075.700684,1.000000 1078.401245,1.000000 1081.406006,1.394632 
	C1080.473633,14.172862 1079.116821,26.545938 1078.034058,38.942951 
	C1076.888550,52.054928 1075.923096,65.184174 1075.026489,78.315956 
	C1073.937134,94.267990 1072.992310,110.229942 1072.004028,126.188789 
	C1071.321289,137.215317 1070.607544,148.240494 1070.022095,159.272354 
	C1069.286987,173.129166 1068.679810,186.992722 1067.996826,200.852356 
	C1067.346558,214.046936 1066.661011,227.239792 1066.006836,240.434189 
	C1065.328003,254.127319 1064.680054,267.821960 1063.996948,281.514862 
	C1063.346802,294.542816 1062.629761,307.567505 1062.012817,320.596985 
	C1061.301392,335.621613 1060.626953,350.648193 1060.010620,365.677002 
	C1059.298584,383.034576 1058.652710,400.394928 1058.005249,417.755066 
	C1057.320312,436.113586 1056.676758,454.473663 1055.995728,472.832336 
	C1055.689209,481.096436 1055.290527,489.357300 1055.013428,497.622314 
	C1054.635620,508.883301 1054.307495,520.146118 1054.006958,531.409485 
	C1053.644287,545.003906 1053.380737,558.601135 1052.962646,572.193787 
	C1052.867188,575.296875 1052.489136,578.421753 1051.868530,581.460449 
	C1051.671387,582.426331 1050.357422,583.742126 1049.401245,583.887085 
	C1037.448608,585.698486 1025.466797,587.315979 1013.494751,588.999451 
	C1004.442444,590.272217 995.381409,591.489380 986.345886,592.872742 
	C973.446228,594.847717 960.553772,596.876038 947.682556,599.027161 
	C938.753235,600.519470 929.864868,602.256897 920.535400,603.933594 
	C917.886108,604.181519 915.659729,604.380737 913.633728,604.562073 
	C918.451477,558.961304 923.281067,513.248901 928.167297,467.000000 
	C925.999207,467.000000 924.202576,467.000000 922.405945,467.000000 
	C904.911072,467.000000 887.416138,467.000000 869.921265,467.000000 
	C858.100891,467.000000 858.037903,466.982086 854.728149,478.628387 
	C845.146790,512.342346 835.477783,546.033325 826.294128,579.855774 
	C825.374084,583.244446 823.731323,584.379944 821.339294,584.729919 
	C812.431091,586.033081 803.469238,586.976807 794.520203,587.990784 
	C784.911011,589.079529 775.285767,590.029297 765.681824,591.161072 
	C755.450134,592.366760 745.232178,593.690247 735.013977,595.007080 
	C725.936279,596.176941 716.872253,597.454041 707.791321,598.597412 
	C700.355347,599.533630 692.903442,600.342712 685.051270,601.255493 
	C685.172485,599.481934 685.042603,598.323364 685.352295,597.297607 
	C694.215881,567.938843 703.147400,538.600586 712.018127,509.243958 
	C722.719910,473.827515 733.426270,438.412323 744.036682,402.968475 
	C753.110840,372.656006 762.043457,342.301208 771.055054,311.970001 
	C781.036987,278.372955 791.025635,244.777878 801.034180,211.188736 
	C808.679688,185.529694 816.376099,159.885773 824.019775,134.226166 
	C828.049438,120.699005 832.091187,107.174667 835.991638,93.610023 
	C842.533875,70.858582 848.967651,48.075977 855.458557,25.266108 
	C862.551758,24.843466 869.630920,24.432865 876.708496,23.996258 
	C881.972717,23.671511 887.243652,23.413088 892.496216,22.950434 
	C906.888489,21.682732 921.271912,20.316374 935.660095,19.002018 
	C943.514709,18.284494 951.383850,17.705957 959.224731,16.863007 
	C970.291321,15.673273 981.337952,14.298684 992.392700,12.999416 
	C1001.824341,11.890907 1011.273010,10.906572 1020.682129,9.630939 
	C1031.030029,8.228055 1041.356567,6.649242 1051.663086,4.967342 
	C1058.801147,3.802476 1065.889404,2.333227 1073.000000,0.999993 
M912.000061,244.504623 
	C900.597839,290.821167 889.195618,337.137695 877.635559,384.095520 
	C897.125977,383.094849 915.967163,382.127533 934.836853,381.158722 
	C935.617249,371.664307 936.241699,362.980438 937.064209,354.315399 
	C938.303528,341.258026 939.787781,328.223450 940.964539,315.160828 
	C941.820862,305.654541 942.238037,296.109222 943.048889,286.598175 
	C944.275696,272.207886 945.694702,257.834076 946.992432,243.449646 
	C947.715881,235.430115 948.245544,227.391739 949.065186,219.382568 
	C950.282288,207.489273 951.929626,195.635376 952.928711,183.725693 
	C953.920959,171.897095 954.234680,160.013123 955.049988,148.167496 
	C955.465942,142.124344 956.503479,136.124695 956.944397,130.082352 
	C957.445251,123.218628 957.593323,116.329163 957.931213,108.619301 
	C954.459045,109.128647 951.409668,109.392426 948.471619,110.111099 
	C947.502930,110.348045 946.352234,111.634132 946.078003,112.653809 
	C939.969543,135.373474 933.890625,158.101868 927.977356,180.873062 
	C922.550476,201.771347 917.324890,222.721878 912.000061,244.504623 
z"/>
<path fill="#FFFFFF" opacity="1.000000" stroke="none" 
	d="
M1845.000000,1.000005 
	C1847.370605,1.000000 1849.741089,1.000000 1852.554932,1.401309 
	C1851.654907,6.476594 1850.203125,11.122512 1848.986938,15.829297 
	C1842.934692,39.251728 1836.859375,62.668819 1830.964233,86.131042 
	C1827.480713,99.995209 1824.114746,113.895439 1821.058105,127.858765 
	C1817.058716,146.128952 1813.371704,164.468201 1809.633789,182.794754 
	C1805.374756,203.675934 1801.149292,224.564316 1797.019897,245.471436 
	C1793.992432,260.800049 1791.060791,276.148743 1788.241821,291.516968 
	C1786.036499,303.539185 1784.066650,315.604645 1781.997314,327.651733 
	C1779.872314,340.021942 1777.757812,352.393951 1775.631470,364.763916 
	C1773.091675,379.539124 1770.517700,394.308563 1768.008301,409.088928 
	C1766.070801,420.500671 1764.182007,431.920837 1762.322876,443.345642 
	C1760.514893,454.456940 1758.739868,465.573822 1757.010620,476.697601 
	C1755.431030,486.858002 1753.921265,497.029297 1752.400513,507.198730 
	C1750.589355,519.308960 1748.794067,531.421631 1747.001587,543.534607 
	C1745.599243,553.011230 1744.211548,562.489990 1742.822876,571.930603 
	C1699.909424,576.870361 1657.570435,581.744019 1614.798096,586.667542 
	C1630.251587,503.052094 1648.422974,420.525818 1663.565186,336.809448 
	C1636.613647,339.328064 1610.984741,341.723083 1585.561890,344.098877 
	C1570.361938,423.572540 1555.232300,502.678680 1540.153564,581.518921 
	C1525.184937,584.686646 1510.885986,587.772583 1496.560425,590.728821 
	C1479.671753,594.213867 1462.743774,597.508484 1445.865234,601.040894 
	C1437.206909,602.852966 1428.619507,605.002869 1420.000000,607.000000 
	C1417.958374,607.000000 1415.916626,607.000000 1413.437500,606.578552 
	C1413.656616,602.977051 1414.346069,599.803284 1414.964600,596.615845 
	C1419.677246,572.333008 1424.273560,548.027100 1429.104492,523.767822 
	C1435.298340,492.665131 1441.849609,461.632904 1447.921143,430.506805 
	C1452.565552,406.696991 1456.703857,382.788483 1461.068115,358.924042 
	C1464.377441,340.828430 1467.701172,322.735443 1470.993774,304.636810 
	C1473.324951,291.822998 1475.691650,279.014923 1477.901123,266.179962 
	C1480.030884,253.807739 1481.935791,241.396896 1484.020386,229.016663 
	C1485.913574,217.772873 1488.034058,206.566360 1489.837036,195.308609 
	C1491.695679,183.702820 1493.226929,172.044952 1495.023315,160.428696 
	C1496.517944,150.764511 1498.266846,141.139648 1499.762573,131.475632 
	C1501.585449,119.698990 1503.297241,107.904732 1504.989746,96.108452 
	C1506.451782,85.919212 1507.827759,75.717575 1509.227295,65.519424 
	C1510.826538,53.866360 1512.458130,42.217407 1513.982178,30.554451 
	C1514.911377,23.444391 1515.664307,16.311291 1516.398682,10.025582 
	C1524.935303,10.025582 1533.201538,9.622997 1541.415283,10.108174 
	C1559.318359,11.165694 1577.177246,13.051476 1595.087280,13.893130 
	C1612.656372,14.718757 1630.266602,14.667755 1647.858521,15.016096 
	C1648.490479,15.028608 1649.119263,15.196508 1649.974854,15.326121 
	C1648.965088,19.088072 1647.896362,22.653223 1647.054932,26.271229 
	C1640.173584,55.858295 1633.362061,85.461548 1626.472168,115.046577 
	C1622.714722,131.180756 1618.549438,147.225739 1615.094727,163.423279 
	C1609.232666,190.908051 1603.787231,218.481674 1598.138794,246.271820 
	C1598.400635,246.628250 1598.690308,246.730820 1599.422119,246.903961 
	C1601.363647,246.978516 1602.881470,247.137695 1604.359497,246.962311 
	C1618.009277,245.342957 1631.644287,243.597076 1645.299805,242.028656 
	C1655.072021,240.906235 1664.881470,240.100052 1674.638672,238.869110 
	C1675.869507,238.713821 1677.644043,236.976166 1677.882446,235.726654 
	C1681.726807,215.575699 1685.409668,195.393433 1689.033447,175.201080 
	C1692.744873,154.520416 1696.197510,133.792175 1700.054443,113.139099 
	C1703.098877,96.837013 1706.444458,80.587349 1709.913452,64.369423 
	C1713.480469,47.693348 1717.359253,31.083948 1721.248169,13.794295 
	C1729.333740,12.853338 1737.421387,11.897072 1745.512939,10.974031 
	C1757.230713,9.637350 1768.941650,8.230625 1780.673340,7.028461 
	C1792.259644,5.841207 1803.868286,4.871165 1815.859863,3.874980 
	C1821.951538,3.623370 1827.665771,3.464100 1833.344238,2.926197 
	C1837.255249,2.555713 1841.116455,1.660629 1845.000000,1.000005 
z"/>
<path fill="#FFFFFF" opacity="1.000000" stroke="none" 
	d="
M778.000000,1.000000 
	C781.030579,1.000000 784.061218,1.000000 787.545898,1.411409 
	C787.798828,2.939833 787.691345,4.083524 787.382141,5.169796 
	C783.605469,18.437057 779.436523,31.604809 776.079163,44.976604 
	C769.830322,69.863991 763.906860,94.835907 758.129333,119.837677 
	C754.798279,134.252640 752.005798,148.792389 748.992737,163.280487 
	C745.118469,181.909042 741.212646,200.531296 737.421509,219.176804 
	C734.535889,233.368698 731.732605,247.578354 729.030640,261.806274 
	C726.327576,276.040039 723.758362,290.299530 721.199829,304.560211 
	C718.754150,318.191956 716.346558,331.830963 714.017090,345.482971 
	C711.850708,358.179047 709.849243,370.903259 707.702576,383.602783 
	C705.176880,398.544800 702.455933,413.454681 700.037781,428.413696 
	C697.849731,441.949341 696.054932,455.548309 693.905334,469.090515 
	C691.375427,485.028900 688.458496,500.907471 686.061523,516.864868 
	C683.488953,533.991272 681.394897,551.189331 678.851807,568.320496 
	C678.648682,569.689148 676.713867,571.650269 675.354126,571.862244 
	C665.181702,573.448364 654.961609,574.748291 644.737000,575.975403 
	C627.502869,578.043823 610.259827,580.040466 593.010254,581.976257 
	C578.783447,583.572815 564.541931,585.037537 549.923584,586.601624 
	C566.347229,503.365265 582.724670,420.363281 599.197205,336.879608 
	C592.741699,337.325256 587.316101,337.570648 581.918091,338.098419 
	C569.355591,339.326660 556.809021,340.717194 544.250671,341.989868 
	C537.066772,342.717865 529.856445,343.220581 522.700989,344.153992 
	C521.676819,344.287598 520.333740,346.171814 520.089233,347.430573 
	C517.915710,358.620911 516.064575,369.873688 513.906921,381.067322 
	C511.043640,395.922028 507.795227,410.704346 505.065643,425.582581 
	C501.185089,446.734131 497.928284,468.002991 493.856720,489.115997 
	C488.159271,518.660522 481.980408,548.112488 475.923065,577.586731 
	C475.468750,579.797241 474.953400,581.715881 471.619812,582.307129 
	C459.945862,584.377747 448.399200,587.159180 436.790436,589.605286 
	C417.060760,593.762573 397.315613,597.846436 377.587494,602.010986 
	C370.043427,603.603516 362.528320,605.332947 355.000000,607.000000 
	C352.958344,607.000000 350.916656,607.000000 348.449707,606.594116 
	C348.721588,602.687866 349.401855,599.184021 350.118530,595.687744 
	C355.734741,568.288147 361.513306,540.920654 366.935913,513.482788 
	C372.489166,485.384155 377.691162,457.216095 383.055725,429.080109 
	C389.029266,397.750153 395.190796,366.454681 400.933411,335.082520 
	C405.245850,311.523529 408.975677,287.858459 413.056824,264.256500 
	C416.970123,241.625259 421.213440,219.049088 424.918549,196.384430 
	C428.235931,176.091629 430.937042,155.698868 434.059448,135.373154 
	C436.931671,116.676102 440.257172,98.045700 442.915131,79.319534 
	C445.581207,60.536453 447.639984,41.667591 450.031006,22.844717 
	C450.617279,18.229122 451.461182,13.646255 452.250702,8.642621 
	C456.435486,9.144257 459.993317,9.719312 463.573914,9.971936 
	C474.094482,10.714209 484.619568,11.413202 495.151215,11.972019 
	C509.338196,12.724789 523.527954,13.477012 537.725647,13.960125 
	C552.812256,14.473487 567.909790,14.668057 583.002014,15.022207 
	C583.620300,15.036716 584.233765,15.259008 585.195923,15.455100 
	C584.773254,16.733459 584.338745,17.768394 584.088135,18.846096 
	C577.574402,46.852272 571.115234,74.871170 564.568359,102.869583 
	C560.797119,118.998116 556.708923,135.054321 553.087769,151.215775 
	C548.290894,172.624603 543.707825,194.083008 539.241821,215.563568 
	C537.220825,225.283997 535.703430,235.109116 533.675415,245.014618 
	C533.595825,245.706299 533.798340,246.270111 534.446228,246.904266 
	C545.822205,245.969055 556.766602,245.092926 567.679993,243.926376 
	C582.471680,242.345215 597.239563,240.541550 612.271606,238.861130 
	C612.628113,238.599411 612.730774,238.309921 612.905334,237.606506 
	C614.982056,227.160278 617.131653,217.154236 618.958313,207.089554 
	C621.835632,191.236191 624.474915,175.339767 627.253967,159.468399 
	C629.807739,144.884079 632.326111,130.292709 635.019531,115.733932 
	C637.799011,100.709778 640.561951,85.677155 643.713989,70.728760 
	C647.263489,53.895721 651.255493,37.156216 655.017090,20.367523 
	C655.816162,16.800697 656.593323,13.494226 661.218445,13.004861 
	C676.189575,11.420827 691.130920,9.547939 706.110107,8.049617 
	C715.433411,7.117032 724.812317,6.752845 734.150574,5.950543 
	C738.799194,5.551148 743.412476,4.740094 748.497498,4.066330 
	C755.210266,3.676532 761.481689,3.495846 767.718506,2.931605 
	C771.175598,2.618846 774.574768,1.664926 778.000000,1.000000 
z"/>
<path fill="#4C6971" opacity="1.000000" stroke="none" 
	d="
M1598.166504,246.017944 
	C1603.787231,218.481674 1609.232666,190.908051 1615.094727,163.423279 
	C1618.549438,147.225739 1622.714722,131.180756 1626.472168,115.046577 
	C1633.362061,85.461548 1640.173584,55.858295 1647.054932,26.271229 
	C1647.896362,22.653223 1648.965088,19.088072 1649.974854,15.326121 
	C1649.119263,15.196508 1648.490479,15.028608 1647.858521,15.016096 
	C1630.266602,14.667755 1612.656372,14.718757 1595.087280,13.893130 
	C1577.177246,13.051476 1559.318359,11.165694 1541.415283,10.108174 
	C1533.201538,9.622997 1524.935303,10.025582 1516.398682,10.025582 
	C1515.664307,16.311291 1514.911377,23.444391 1513.982178,30.554451 
	C1512.458130,42.217407 1510.826538,53.866360 1509.227295,65.519424 
	C1507.827759,75.717575 1506.451782,85.919212 1504.989746,96.108452 
	C1503.297241,107.904732 1501.585449,119.698990 1499.762573,131.475632 
	C1498.266846,141.139648 1496.517944,150.764511 1495.023315,160.428696 
	C1493.226929,172.044952 1491.695679,183.702820 1489.837036,195.308609 
	C1488.034058,206.566360 1485.913574,217.772873 1484.020386,229.016663 
	C1481.935791,241.396896 1480.030884,253.807739 1477.901123,266.179962 
	C1475.691650,279.014923 1473.324951,291.822998 1470.993774,304.636810 
	C1467.701172,322.735443 1464.377441,340.828430 1461.068115,358.924042 
	C1456.703857,382.788483 1452.565552,406.696991 1447.921143,430.506805 
	C1441.849609,461.632904 1435.298340,492.665131 1429.104492,523.767822 
	C1424.273560,548.027100 1419.677246,572.333008 1414.964600,596.615845 
	C1414.346069,599.803284 1413.656616,602.977051 1413.000000,606.578552 
	C1350.979126,607.000000 1288.958130,607.000000 1226.645508,606.628174 
	C1232.018799,605.452332 1237.752930,604.972168 1243.336426,603.784363 
	C1260.982910,600.030273 1278.340576,595.456543 1294.999146,588.170837 
	C1316.138550,578.925415 1335.677246,567.269897 1352.650757,551.699341 
	C1368.825195,536.861877 1382.259399,519.869690 1393.338867,500.683807 
	C1409.369019,472.925140 1416.305908,443.008331 1417.884399,411.521912 
	C1418.313477,402.963287 1417.233276,394.336517 1417.021973,385.736694 
	C1416.597290,368.464722 1413.777832,351.625793 1407.969727,335.344635 
	C1394.664551,298.046722 1370.463379,270.079773 1336.573486,249.618820 
	C1316.918091,237.751953 1297.228516,225.649918 1281.949219,207.684204 
	C1270.823364,194.602142 1265.926880,172.713806 1274.335083,156.385757 
	C1283.989380,137.638184 1299.724854,125.570274 1319.036499,118.012962 
	C1329.171265,114.046883 1338.078247,116.679405 1345.813110,124.255318 
	C1354.006958,132.280609 1356.667603,142.607864 1356.779663,153.283951 
	C1356.903687,165.097595 1355.321777,176.929138 1354.477661,188.824997 
	C1393.418335,177.554474 1433.212280,166.037003 1472.537964,154.655045 
	C1473.044067,151.834534 1473.512085,149.594223 1473.840210,147.333603 
	C1475.249023,137.631927 1477.522461,127.947121 1477.768311,118.212929 
	C1478.071045,106.217506 1477.518066,94.059090 1475.831299,82.184677 
	C1472.473877,58.548737 1459.770386,40.327667 1440.363770,26.813198 
	C1421.417114,13.618917 1399.471436,10.209563 1377.174072,9.197196 
	C1366.532959,8.714059 1355.789551,10.227350 1345.105469,11.012940 
	C1328.775146,12.213692 1312.999023,16.141737 1297.379761,20.875521 
	C1272.205933,28.505018 1248.257202,38.885990 1225.506714,52.104015 
	C1205.029053,64.001511 1185.894287,77.712227 1169.170776,94.498199 
	C1160.929077,102.770584 1153.050659,111.527107 1145.962036,120.794472 
	C1137.469604,131.897125 1129.695068,143.564255 1124.563354,156.791718 
	C1119.646362,169.465424 1116.192505,182.335052 1114.754883,195.960556 
	C1112.870850,213.818771 1114.183350,231.069901 1121.859253,247.330261 
	C1131.667969,268.108795 1145.846802,285.723175 1163.721313,300.103027 
	C1183.468750,315.989624 1203.558960,331.455292 1223.666260,346.887512 
	C1237.733154,357.683746 1251.850586,368.250153 1263.587769,381.833099 
	C1273.647583,393.475006 1281.642334,405.470795 1283.388184,421.346558 
	C1284.371460,430.288361 1283.022217,438.200348 1278.717529,445.718475 
	C1272.164185,457.163696 1262.077393,464.907013 1249.974976,469.233612 
	C1241.504272,472.261932 1232.214966,474.765991 1223.377563,474.510864 
	C1214.383057,474.251221 1205.212524,471.077820 1196.615967,467.855103 
	C1176.235107,460.214569 1157.391357,449.744354 1142.287109,433.665894 
	C1136.894897,427.925995 1132.215210,421.516876 1127.144897,415.333588 
	C1121.783936,425.445374 1116.303345,435.452362 1111.125000,445.613373 
	C1097.036987,473.257385 1083.151978,501.005219 1068.984619,528.608276 
	C1066.866943,532.734192 1066.793457,535.719299 1070.341919,538.963684 
	C1073.244385,541.617432 1075.749268,544.735413 1078.247192,547.797180 
	C1088.421753,560.268799 1100.432617,570.703125 1113.416992,580.130798 
	C1129.669922,591.931641 1147.778564,599.615356 1166.885010,605.134521 
	C1166.160645,605.931885 1165.580322,606.465942 1165.000000,607.000000 
	C1083.979126,607.000000 1002.958191,607.000000 921.468018,606.610535 
	C920.985168,605.442322 920.971680,604.663635 920.958252,603.884888 
	C929.864868,602.256897 938.753235,600.519470 947.682556,599.027161 
	C960.553772,596.876038 973.446228,594.847717 986.345886,592.872742 
	C995.381409,591.489380 1004.442444,590.272217 1013.494751,588.999451 
	C1025.466797,587.315979 1037.448608,585.698486 1049.401245,583.887085 
	C1050.357422,583.742126 1051.671387,582.426331 1051.868530,581.460449 
	C1052.489136,578.421753 1052.867188,575.296875 1052.962646,572.193787 
	C1053.380737,558.601135 1053.644287,545.003906 1054.006958,531.409485 
	C1054.307495,520.146118 1054.635620,508.883301 1055.013428,497.622314 
	C1055.290527,489.357300 1055.689209,481.096436 1055.995728,472.832336 
	C1056.676758,454.473663 1057.320312,436.113586 1058.005249,417.755066 
	C1058.652710,400.394928 1059.298584,383.034576 1060.010620,365.677002 
	C1060.626953,350.648193 1061.301392,335.621613 1062.012817,320.596985 
	C1062.629761,307.567505 1063.346802,294.542816 1063.996948,281.514862 
	C1064.680054,267.821960 1065.328003,254.127319 1066.006836,240.434189 
	C1066.661011,227.239792 1067.346558,214.046936 1067.996826,200.852356 
	C1068.679810,186.992722 1069.286987,173.129166 1070.022095,159.272354 
	C1070.607544,148.240494 1071.321289,137.215317 1072.004028,126.188789 
	C1072.992310,110.229942 1073.937134,94.267990 1075.026489,78.315956 
	C1075.923096,65.184174 1076.888550,52.054928 1078.034058,38.942951 
	C1079.116821,26.545938 1080.473633,14.172862 1081.854980,1.394632 
	C1325.687622,1.000000 1569.375122,1.000000 1813.693970,1.357206 
	C1814.705811,2.411569 1815.086426,3.108726 1815.467041,3.805859 
	C1803.868286,4.871165 1792.259644,5.841207 1780.673340,7.028461 
	C1768.941650,8.230625 1757.230713,9.637350 1745.512939,10.974031 
	C1737.421387,11.897072 1729.333740,12.853338 1721.248169,13.794295 
	C1717.359253,31.083948 1713.480469,47.693348 1709.913452,64.369423 
	C1706.444458,80.587349 1703.098877,96.837013 1700.054443,113.139099 
	C1696.197510,133.792175 1692.744873,154.520416 1689.033447,175.201080 
	C1685.409668,195.393433 1681.726807,215.575699 1677.882446,235.726654 
	C1677.644043,236.976166 1675.869507,238.713821 1674.638672,238.869110 
	C1664.881470,240.100052 1655.072021,240.906235 1645.299805,242.028656 
	C1631.644287,243.597076 1618.009277,245.342957 1604.359497,246.962311 
	C1602.881470,247.137695 1601.363647,246.978516 1599.330322,246.728470 
	C1598.633667,246.263718 1598.423584,246.108887 1598.166504,246.017944 
z"/>
<path fill="#FFFFFF" opacity="1.000000" stroke="none" 
	d="
M162.000000,607.000000 
	C142.645767,607.000000 123.291542,607.000000 103.458801,606.610229 
	C102.051216,605.481323 101.233368,604.445374 100.175835,604.049133 
	C89.889603,600.194580 78.965126,597.554626 69.399872,592.388611 
	C57.463318,585.941833 46.245499,577.947754 35.468243,569.646912 
	C28.241781,564.080994 22.221598,556.915833 15.845240,550.289673 
	C10.753133,544.998047 5.938054,539.439880 1.000003,534.000000 
	C1.000000,534.000000 1.000000,533.500000 1.319363,533.167114 
	C2.130759,531.903442 2.622790,530.972595 3.424664,529.875732 
	C5.501007,526.411438 7.334631,523.147034 9.023562,519.809509 
	C24.435369,489.353821 39.790100,458.869171 55.251545,428.438751 
	C57.479084,424.054657 60.184586,419.913391 62.902576,415.259644 
	C63.984646,416.639893 64.542801,417.237701 64.972435,417.916809 
	C72.808006,430.302521 82.869431,440.701141 95.173477,448.439026 
	C106.438583,455.523590 118.146736,462.188721 130.360931,467.392761 
	C140.953384,471.905823 152.040756,475.474426 164.310165,474.193481 
	C182.690262,472.274536 198.164017,465.534454 210.219070,451.316376 
	C217.968964,442.175934 220.297729,431.446014 218.839508,420.008148 
	C216.819214,404.161713 208.489029,391.226440 197.507401,380.218231 
	C187.848862,370.536377 177.714417,361.210144 166.996780,352.729523 
	C146.637070,336.619354 125.671852,321.276215 105.032082,305.517639 
	C90.800133,294.651459 78.976341,281.453949 68.520073,266.992767 
	C55.269539,248.667084 48.296185,228.295898 49.070732,205.565109 
	C49.259556,200.023712 50.258873,194.502991 51.003998,188.988770 
	C53.619938,169.629807 60.582619,151.848694 71.079781,135.482178 
	C84.194489,115.034538 100.308807,97.239594 118.861664,81.518173 
	C133.881912,68.790222 150.027420,57.750481 167.272995,48.436897 
	C193.260208,34.402332 220.379776,23.080109 249.272644,16.299549 
	C267.516357,12.018129 285.953369,8.830306 304.672028,9.205014 
	C317.071564,9.453225 329.542236,11.019453 341.786194,13.127466 
	C365.364868,17.186935 384.138092,29.255400 398.020905,48.921936 
	C409.834534,65.657249 413.948547,84.828278 413.664398,104.551056 
	C413.422974,121.304886 410.265564,138.016693 408.425873,154.500351 
	C368.214203,166.133621 328.833832,177.526413 289.040314,189.038712 
	C289.040314,187.510483 288.764374,186.285660 289.083008,185.242416 
	C292.271881,174.801132 292.950348,164.187653 292.076080,153.331070 
	C291.426636,145.265976 290.095856,137.526642 286.088470,130.365997 
	C279.389282,118.395485 265.239227,112.871483 253.187607,118.552452 
	C244.857391,122.479210 236.246964,126.676559 229.352264,132.603287 
	C215.070755,144.879791 203.463821,158.898621 205.812164,180.067459 
	C207.060226,191.317886 211.082535,200.755035 218.497711,209.004120 
	C234.173004,226.442230 253.827469,238.699417 273.533386,250.779709 
	C293.493195,263.015656 310.704956,277.966248 324.121399,297.323517 
	C342.628296,324.025269 351.194092,353.955841 352.832031,385.922943 
	C353.786499,404.550659 353.491638,423.270264 350.032471,441.777679 
	C347.000854,457.997467 342.341278,473.660309 335.121185,488.523285 
	C327.746002,503.705475 319.274994,518.257141 307.721161,530.635437 
	C297.979919,541.071655 288.196259,551.656982 277.215118,560.699219 
	C263.640625,571.876953 248.309998,580.638733 232.001190,587.549744 
	C215.937759,594.356689 199.454132,599.700562 182.317032,603.006531 
	C175.540100,604.313904 168.772079,605.667480 162.000000,607.000000 
z"/>
<path fill="#FFFFFF" opacity="1.000000" stroke="none" 
	d="
M1167.029175,604.871155 
	C1147.778564,599.615356 1129.669922,591.931641 1113.416992,580.130798 
	C1100.432617,570.703125 1088.421753,560.268799 1078.247192,547.797180 
	C1075.749268,544.735413 1073.244385,541.617432 1070.341919,538.963684 
	C1066.793457,535.719299 1066.866943,532.734192 1068.984619,528.608276 
	C1083.151978,501.005219 1097.036987,473.257385 1111.125000,445.613373 
	C1116.303345,435.452362 1121.783936,425.445374 1127.144897,415.333588 
	C1132.215210,421.516876 1136.894897,427.925995 1142.287109,433.665894 
	C1157.391357,449.744354 1176.235107,460.214569 1196.615967,467.855103 
	C1205.212524,471.077820 1214.383057,474.251221 1223.377563,474.510864 
	C1232.214966,474.765991 1241.504272,472.261932 1249.974976,469.233612 
	C1262.077393,464.907013 1272.164185,457.163696 1278.717529,445.718475 
	C1283.022217,438.200348 1284.371460,430.288361 1283.388184,421.346558 
	C1281.642334,405.470795 1273.647583,393.475006 1263.587769,381.833099 
	C1251.850586,368.250153 1237.733154,357.683746 1223.666260,346.887512 
	C1203.558960,331.455292 1183.468750,315.989624 1163.721313,300.103027 
	C1145.846802,285.723175 1131.667969,268.108795 1121.859253,247.330261 
	C1114.183350,231.069901 1112.870850,213.818771 1114.754883,195.960556 
	C1116.192505,182.335052 1119.646362,169.465424 1124.563354,156.791718 
	C1129.695068,143.564255 1137.469604,131.897125 1145.962036,120.794472 
	C1153.050659,111.527107 1160.929077,102.770584 1169.170776,94.498199 
	C1185.894287,77.712227 1205.029053,64.001511 1225.506714,52.104015 
	C1248.257202,38.885990 1272.205933,28.505018 1297.379761,20.875521 
	C1312.999023,16.141737 1328.775146,12.213692 1345.105469,11.012940 
	C1355.789551,10.227350 1366.532959,8.714059 1377.174072,9.197196 
	C1399.471436,10.209563 1421.417114,13.618917 1440.363770,26.813198 
	C1459.770386,40.327667 1472.473877,58.548737 1475.831299,82.184677 
	C1477.518066,94.059090 1478.071045,106.217506 1477.768311,118.212929 
	C1477.522461,127.947121 1475.249023,137.631927 1473.840210,147.333603 
	C1473.512085,149.594223 1473.044067,151.834534 1472.537964,154.655045 
	C1433.212280,166.037003 1393.418335,177.554474 1354.477661,188.824997 
	C1355.321777,176.929138 1356.903687,165.097595 1356.779663,153.283951 
	C1356.667603,142.607864 1354.006958,132.280609 1345.813110,124.255318 
	C1338.078247,116.679405 1329.171265,114.046883 1319.036499,118.012962 
	C1299.724854,125.570274 1283.989380,137.638184 1274.335083,156.385757 
	C1265.926880,172.713806 1270.823364,194.602142 1281.949219,207.684204 
	C1297.228516,225.649918 1316.918091,237.751953 1336.573486,249.618820 
	C1370.463379,270.079773 1394.664551,298.046722 1407.969727,335.344635 
	C1413.777832,351.625793 1416.597290,368.464722 1417.021973,385.736694 
	C1417.233276,394.336517 1418.313477,402.963287 1417.884399,411.521912 
	C1416.305908,443.008331 1409.369019,472.925140 1393.338867,500.683807 
	C1382.259399,519.869690 1368.825195,536.861877 1352.650757,551.699341 
	C1335.677246,567.269897 1316.138550,578.925415 1294.999146,588.170837 
	C1278.340576,595.456543 1260.982910,600.030273 1243.336426,603.784363 
	C1237.752930,604.972168 1232.018799,605.452332 1226.176758,606.628174 
	C1207.979126,607.000000 1189.958130,607.000000 1171.455688,606.610291 
	C1169.659180,605.770752 1168.344116,605.320984 1167.029175,604.871155 
z"/>
<path fill="#4C6971" opacity="1.000000" stroke="none" 
	d="
M162.468658,607.000000 
	C168.772079,605.667480 175.540100,604.313904 182.317032,603.006531 
	C199.454132,599.700562 215.937759,594.356689 232.001190,587.549744 
	C248.309998,580.638733 263.640625,571.876953 277.215118,560.699219 
	C288.196259,551.656982 297.979919,541.071655 307.721161,530.635437 
	C319.274994,518.257141 327.746002,503.705475 335.121185,488.523285 
	C342.341278,473.660309 347.000854,457.997467 350.032471,441.777679 
	C353.491638,423.270264 353.786499,404.550659 352.832031,385.922943 
	C351.194092,353.955841 342.628296,324.025269 324.121399,297.323517 
	C310.704956,277.966248 293.493195,263.015656 273.533386,250.779709 
	C253.827469,238.699417 234.173004,226.442230 218.497711,209.004120 
	C211.082535,200.755035 207.060226,191.317886 205.812164,180.067459 
	C203.463821,158.898621 215.070755,144.879791 229.352264,132.603287 
	C236.246964,126.676559 244.857391,122.479210 253.187607,118.552452 
	C265.239227,112.871483 279.389282,118.395485 286.088470,130.365997 
	C290.095856,137.526642 291.426636,145.265976 292.076080,153.331070 
	C292.950348,164.187653 292.271881,174.801132 289.083008,185.242416 
	C288.764374,186.285660 289.040314,187.510483 289.040314,189.038712 
	C328.833832,177.526413 368.214203,166.133621 408.425873,154.500351 
	C410.265564,138.016693 413.422974,121.304886 413.664398,104.551056 
	C413.948547,84.828278 409.834534,65.657249 398.020905,48.921936 
	C384.138092,29.255400 365.364868,17.186935 341.786194,13.127466 
	C329.542236,11.019453 317.071564,9.453225 304.672028,9.205014 
	C285.953369,8.830306 267.516357,12.018129 249.272644,16.299549 
	C220.379776,23.080109 193.260208,34.402332 167.272995,48.436897 
	C150.027420,57.750481 133.881912,68.790222 118.861664,81.518173 
	C100.308807,97.239594 84.194489,115.034538 71.079781,135.482178 
	C60.582619,151.848694 53.619938,169.629807 51.003998,188.988770 
	C50.258873,194.502991 49.259556,200.023712 49.070732,205.565109 
	C48.296185,228.295898 55.269539,248.667084 68.520073,266.992767 
	C78.976341,281.453949 90.800133,294.651459 105.032082,305.517639 
	C125.671852,321.276215 146.637070,336.619354 166.996780,352.729523 
	C177.714417,361.210144 187.848862,370.536377 197.507401,380.218231 
	C208.489029,391.226440 216.819214,404.161713 218.839508,420.008148 
	C220.297729,431.446014 217.968964,442.175934 210.219070,451.316376 
	C198.164017,465.534454 182.690262,472.274536 164.310165,474.193481 
	C152.040756,475.474426 140.953384,471.905823 130.360931,467.392761 
	C118.146736,462.188721 106.438583,455.523590 95.173477,448.439026 
	C82.869431,440.701141 72.808006,430.302521 64.972435,417.916809 
	C64.542801,417.237701 63.984646,416.639893 62.902576,415.259644 
	C60.184586,419.913391 57.479084,424.054657 55.251545,428.438751 
	C39.790100,458.869171 24.435369,489.353821 9.023562,519.809509 
	C7.334631,523.147034 5.501007,526.411438 3.072315,529.861572 
	C1.940083,530.008972 1.470042,530.004456 1.000000,530.000000 
	C1.000000,354.312439 1.000000,178.624878 1.219358,2.360744 
	C1.712344,1.584728 1.899438,1.323337 2.000000,1.000000 
	C250.354233,1.000000 498.708466,1.000000 747.531982,1.389462 
	C748.014771,2.557699 748.028259,3.336474 748.041748,4.115252 
	C743.412476,4.740094 738.799194,5.551148 734.150574,5.950543 
	C724.812317,6.752845 715.433411,7.117032 706.110107,8.049617 
	C691.130920,9.547939 676.189575,11.420827 661.218445,13.004861 
	C656.593323,13.494226 655.816162,16.800697 655.017090,20.367523 
	C651.255493,37.156216 647.263489,53.895721 643.713989,70.728760 
	C640.561951,85.677155 637.799011,100.709778 635.019531,115.733932 
	C632.326111,130.292709 629.807739,144.884079 627.253967,159.468399 
	C624.474915,175.339767 621.835632,191.236191 618.958313,207.089554 
	C617.131653,217.154236 614.982056,227.160278 612.729797,237.698044 
	C612.263794,238.366455 612.108887,238.576416 612.017700,238.833344 
	C597.239563,240.541550 582.471680,242.345215 567.679993,243.926376 
	C556.766602,245.092926 545.822205,245.969055 534.444580,246.579803 
	C533.984192,245.752258 533.970886,245.319489 533.957581,244.886734 
	C535.703430,235.109116 537.220825,225.283997 539.241821,215.563568 
	C543.707825,194.083008 548.290894,172.624603 553.087769,151.215775 
	C556.708923,135.054321 560.797119,118.998116 564.568359,102.869583 
	C571.115234,74.871170 577.574402,46.852272 584.088135,18.846096 
	C584.338745,17.768394 584.773254,16.733459 585.195923,15.455100 
	C584.233765,15.259008 583.620300,15.036716 583.002014,15.022207 
	C567.909790,14.668057 552.812256,14.473487 537.725647,13.960125 
	C523.527954,13.477012 509.338196,12.724789 495.151215,11.972019 
	C484.619568,11.413202 474.094482,10.714209 463.573914,9.971936 
	C459.993317,9.719312 456.435486,9.144257 452.250702,8.642621 
	C451.461182,13.646255 450.617279,18.229122 450.031006,22.844717 
	C447.639984,41.667591 445.581207,60.536453 442.915131,79.319534 
	C440.257172,98.045700 436.931671,116.676102 434.059448,135.373154 
	C430.937042,155.698868 428.235931,176.091629 424.918549,196.384430 
	C421.213440,219.049088 416.970123,241.625259 413.056824,264.256500 
	C408.975677,287.858459 405.245850,311.523529 400.933411,335.082520 
	C395.190796,366.454681 389.029266,397.750153 383.055725,429.080109 
	C377.691162,457.216095 372.489166,485.384155 366.935913,513.482788 
	C361.513306,540.920654 355.734741,568.288147 350.118530,595.687744 
	C349.401855,599.184021 348.721588,602.687866 348.012207,606.594116 
	C286.312439,607.000000 224.624878,607.000000 162.468658,607.000000 
z"/>
<path fill="#4C6971" opacity="1.000000" stroke="none" 
	d="
M1420.468628,607.000000 
	C1428.619507,605.002869 1437.206909,602.852966 1445.865234,601.040894 
	C1462.743774,597.508484 1479.671753,594.213867 1496.560425,590.728821 
	C1510.885986,587.772583 1525.184937,584.686646 1540.153564,581.518921 
	C1555.232300,502.678680 1570.361938,423.572540 1585.561890,344.098877 
	C1610.984741,341.723083 1636.613647,339.328064 1663.565186,336.809448 
	C1648.422974,420.525818 1630.251587,503.052094 1614.798096,586.667542 
	C1657.570435,581.744019 1699.909424,576.870361 1742.822876,571.930603 
	C1744.211548,562.489990 1745.599243,553.011230 1747.001587,543.534607 
	C1748.794067,531.421631 1750.589355,519.308960 1752.400513,507.198730 
	C1753.921265,497.029297 1755.431030,486.858002 1757.010620,476.697601 
	C1758.739868,465.573822 1760.514893,454.456940 1762.322876,443.345642 
	C1764.182007,431.920837 1766.070801,420.500671 1768.008301,409.088928 
	C1770.517700,394.308563 1773.091675,379.539124 1775.631470,364.763916 
	C1777.757812,352.393951 1779.872314,340.021942 1781.997314,327.651733 
	C1784.066650,315.604645 1786.036499,303.539185 1788.241821,291.516968 
	C1791.060791,276.148743 1793.992432,260.800049 1797.019897,245.471436 
	C1801.149292,224.564316 1805.374756,203.675934 1809.633789,182.794754 
	C1813.371704,164.468201 1817.058716,146.128952 1821.058105,127.858765 
	C1824.114746,113.895439 1827.480713,99.995209 1830.964233,86.131042 
	C1836.859375,62.668819 1842.934692,39.251728 1848.986938,15.829297 
	C1850.203125,11.122512 1851.654907,6.476594 1852.999023,1.401309 
	C1902.333374,1.000000 1951.666748,1.000000 2001.000000,1.000000 
	C2001.000000,5.409130 2001.000000,9.730437 2000.645264,14.381203 
	C1999.296387,14.217814 1998.220581,13.185767 1997.321899,13.322080 
	C1992.511963,14.051520 1987.769043,15.219298 1982.961060,15.965608 
	C1967.314087,18.394396 1951.633545,20.608711 1935.994629,23.086737 
	C1915.704834,26.301722 1895.432373,29.631477 1875.188843,33.123093 
	C1873.653076,33.387966 1871.700684,35.084568 1871.182983,36.553085 
	C1870.279785,39.115345 1870.392822,42.025471 1869.991699,44.776947 
	C1868.319702,56.249897 1866.712036,67.733421 1864.899170,79.184326 
	C1862.349854,95.287064 1859.590820,111.356483 1857.015259,127.455162 
	C1855.210083,138.738235 1853.637695,150.058624 1851.823975,161.340271 
	C1849.624756,175.019760 1847.251099,188.671127 1845.008179,202.343735 
	C1843.185791,213.451477 1841.498413,224.581436 1839.654053,235.685425 
	C1837.491089,248.708359 1835.168945,261.704865 1833.016357,274.729462 
	C1830.888428,287.605927 1828.990356,300.520935 1826.800293,313.386444 
	C1824.312744,327.998688 1821.557495,342.565125 1819.020508,357.169189 
	C1816.230713,373.228607 1813.716919,389.337463 1810.784912,405.370331 
	C1808.063110,420.253326 1804.871216,435.049713 1802.026245,449.911041 
	C1797.924194,471.339447 1794.217896,492.847046 1789.854492,514.221191 
	C1783.686157,544.436707 1777.072144,574.561279 1770.598145,604.961731 
	C1774.104858,604.616089 1777.684082,604.391113 1781.224487,603.891663 
	C1794.805786,601.975952 1808.351318,599.789917 1821.954834,598.054504 
	C1834.473267,596.457458 1847.041382,595.231506 1859.601807,593.984619 
	C1873.815186,592.573669 1888.032593,591.165039 1902.274780,590.112305 
	C1905.735596,589.856506 1906.704956,588.587891 1907.063843,585.456787 
	C1907.750732,579.464905 1908.829102,573.517944 1909.742188,567.551880 
	C1911.495483,556.095947 1913.307983,544.648621 1914.980713,533.180908 
	C1916.466797,522.992065 1917.671021,512.761230 1919.227173,502.583740 
	C1921.371582,488.559448 1923.815552,474.581024 1925.972534,460.558563 
	C1928.107788,446.677734 1929.907104,432.744507 1932.111328,418.875183 
	C1934.233765,405.519501 1936.796997,392.234222 1938.963989,378.885132 
	C1941.448486,363.581421 1943.573242,348.218903 1946.101807,332.922821 
	C1949.609985,311.699341 1953.463623,290.532837 1956.954956,269.306671 
	C1960.132324,249.987396 1962.833740,230.589005 1966.090820,211.283844 
	C1969.857544,188.957077 1974.112305,166.713013 1977.950439,144.397827 
	C1981.460571,123.989449 1984.650269,103.526192 1988.068237,83.101700 
	C1991.322876,63.653625 1994.628174,44.213383 1998.079712,24.799698 
	C1998.557617,22.111708 2000.002686,19.595673 2001.000000,17.000015 
	C2001.000000,213.593201 2001.000000,410.186401 2001.000000,607.000000 
	C1807.645752,607.000000 1614.291504,607.000000 1420.468628,607.000000 
z"/>
<path fill="#FFFFFF" opacity="1.000000" stroke="none" 
	d="
M2001.000000,16.666683 
	C2000.002686,19.595673 1998.557617,22.111708 1998.079712,24.799698 
	C1994.628174,44.213383 1991.322876,63.653625 1988.068237,83.101700 
	C1984.650269,103.526192 1981.460571,123.989449 1977.950439,144.397827 
	C1974.112305,166.713013 1969.857544,188.957077 1966.090820,211.283844 
	C1962.833740,230.589005 1960.132324,249.987396 1956.954956,269.306671 
	C1953.463623,290.532837 1949.609985,311.699341 1946.101807,332.922821 
	C1943.573242,348.218903 1941.448486,363.581421 1938.963989,378.885132 
	C1936.796997,392.234222 1934.233765,405.519501 1932.111328,418.875183 
	C1929.907104,432.744507 1928.107788,446.677734 1925.972534,460.558563 
	C1923.815552,474.581024 1921.371582,488.559448 1919.227173,502.583740 
	C1917.671021,512.761230 1916.466797,522.992065 1914.980713,533.180908 
	C1913.307983,544.648621 1911.495483,556.095947 1909.742188,567.551880 
	C1908.829102,573.517944 1907.750732,579.464905 1907.063843,585.456787 
	C1906.704956,588.587891 1905.735596,589.856506 1902.274780,590.112305 
	C1888.032593,591.165039 1873.815186,592.573669 1859.601807,593.984619 
	C1847.041382,595.231506 1834.473267,596.457458 1821.954834,598.054504 
	C1808.351318,599.789917 1794.805786,601.975952 1781.224487,603.891663 
	C1777.684082,604.391113 1774.104858,604.616089 1770.598145,604.961731 
	C1777.072144,574.561279 1783.686157,544.436707 1789.854492,514.221191 
	C1794.217896,492.847046 1797.924194,471.339447 1802.026245,449.911041 
	C1804.871216,435.049713 1808.063110,420.253326 1810.784912,405.370331 
	C1813.716919,389.337463 1816.230713,373.228607 1819.020508,357.169189 
	C1821.557495,342.565125 1824.312744,327.998688 1826.800293,313.386444 
	C1828.990356,300.520935 1830.888428,287.605927 1833.016357,274.729462 
	C1835.168945,261.704865 1837.491089,248.708359 1839.654053,235.685425 
	C1841.498413,224.581436 1843.185791,213.451477 1845.008179,202.343735 
	C1847.251099,188.671127 1849.624756,175.019760 1851.823975,161.340271 
	C1853.637695,150.058624 1855.210083,138.738235 1857.015259,127.455162 
	C1859.590820,111.356483 1862.349854,95.287064 1864.899170,79.184326 
	C1866.712036,67.733421 1868.319702,56.249897 1869.991699,44.776947 
	C1870.392822,42.025471 1870.279785,39.115345 1871.182983,36.553085 
	C1871.700684,35.084568 1873.653076,33.387966 1875.188843,33.123093 
	C1895.432373,29.631477 1915.704834,26.301722 1935.994629,23.086737 
	C1951.633545,20.608711 1967.314087,18.394396 1982.961060,15.965608 
	C1987.769043,15.219298 1992.511963,14.051520 1997.321899,13.322080 
	C1998.220581,13.185767 1999.296387,14.217814 2000.645264,14.855330 
	C2001.000000,15.444445 2001.000000,15.888889 2001.000000,16.666683 
z"/>
<path fill="#4C6971" opacity="1.000000" stroke="none" 
	d="
M920.535339,603.933594 
	C920.971680,604.663635 920.985168,605.442322 920.999329,606.610535 
	C732.645752,607.000000 544.291565,607.000000 355.468658,607.000000 
	C362.528320,605.332947 370.043427,603.603516 377.587494,602.010986 
	C397.315613,597.846436 417.060760,593.762573 436.790436,589.605286 
	C448.399200,587.159180 459.945862,584.377747 471.619812,582.307129 
	C474.953400,581.715881 475.468750,579.797241 475.923065,577.586731 
	C481.980408,548.112488 488.159271,518.660522 493.856720,489.115997 
	C497.928284,468.002991 501.185089,446.734131 505.065643,425.582581 
	C507.795227,410.704346 511.043640,395.922028 513.906921,381.067322 
	C516.064575,369.873688 517.915710,358.620911 520.089233,347.430573 
	C520.333740,346.171814 521.676819,344.287598 522.700989,344.153992 
	C529.856445,343.220581 537.066772,342.717865 544.250671,341.989868 
	C556.809021,340.717194 569.355591,339.326660 581.918091,338.098419 
	C587.316101,337.570648 592.741699,337.325256 599.197205,336.879608 
	C582.724670,420.363281 566.347229,503.365265 549.923584,586.601624 
	C564.541931,585.037537 578.783447,583.572815 593.010254,581.976257 
	C610.259827,580.040466 627.502869,578.043823 644.737000,575.975403 
	C654.961609,574.748291 665.181702,573.448364 675.354126,571.862244 
	C676.713867,571.650269 678.648682,569.689148 678.851807,568.320496 
	C681.394897,551.189331 683.488953,533.991272 686.061523,516.864868 
	C688.458496,500.907471 691.375427,485.028900 693.905334,469.090515 
	C696.054932,455.548309 697.849731,441.949341 700.037781,428.413696 
	C702.455933,413.454681 705.176880,398.544800 707.702576,383.602783 
	C709.849243,370.903259 711.850708,358.179047 714.017090,345.482971 
	C716.346558,331.830963 718.754150,318.191956 721.199829,304.560211 
	C723.758362,290.299530 726.327576,276.040039 729.030640,261.806274 
	C731.732605,247.578354 734.535889,233.368698 737.421509,219.176804 
	C741.212646,200.531296 745.118469,181.909042 748.992737,163.280487 
	C752.005798,148.792389 754.798279,134.252640 758.129333,119.837677 
	C763.906860,94.835907 769.830322,69.863991 776.079163,44.976604 
	C779.436523,31.604809 783.605469,18.437057 787.382141,5.169796 
	C787.691345,4.083524 787.798828,2.939833 788.000000,1.411409 
	C882.687561,1.000000 977.375183,1.000000 1072.531372,0.999993 
	C1065.889404,2.333227 1058.801147,3.802476 1051.663086,4.967342 
	C1041.356567,6.649242 1031.030029,8.228055 1020.682129,9.630939 
	C1011.273010,10.906572 1001.824341,11.890907 992.392700,12.999416 
	C981.337952,14.298684 970.291321,15.673273 959.224731,16.863007 
	C951.383850,17.705957 943.514709,18.284494 935.660095,19.002018 
	C921.271912,20.316374 906.888489,21.682732 892.496216,22.950434 
	C887.243652,23.413088 881.972717,23.671511 876.708496,23.996258 
	C869.630920,24.432865 862.551758,24.843466 855.458557,25.266108 
	C848.967651,48.075977 842.533875,70.858582 835.991638,93.610023 
	C832.091187,107.174667 828.049438,120.699005 824.019775,134.226166 
	C816.376099,159.885773 808.679688,185.529694 801.034180,211.188736 
	C791.025635,244.777878 781.036987,278.372955 771.055054,311.970001 
	C762.043457,342.301208 753.110840,372.656006 744.036682,402.968475 
	C733.426270,438.412323 722.719910,473.827515 712.018127,509.243958 
	C703.147400,538.600586 694.215881,567.938843 685.352295,597.297607 
	C685.042603,598.323364 685.172485,599.481934 685.051270,601.255493 
	C692.903442,600.342712 700.355347,599.533630 707.791321,598.597412 
	C716.872253,597.454041 725.936279,596.176941 735.013977,595.007080 
	C745.232178,593.690247 755.450134,592.366760 765.681824,591.161072 
	C775.285767,590.029297 784.911011,589.079529 794.520203,587.990784 
	C803.469238,586.976807 812.431091,586.033081 821.339294,584.729919 
	C823.731323,584.379944 825.374084,583.244446 826.294128,579.855774 
	C835.477783,546.033325 845.146790,512.342346 854.728149,478.628387 
	C858.037903,466.982086 858.100891,467.000000 869.921265,467.000000 
	C887.416138,467.000000 904.911072,467.000000 922.405945,467.000000 
	C924.202576,467.000000 925.999207,467.000000 928.167297,467.000000 
	C923.281067,513.248901 918.451477,558.961304 913.633728,604.562073 
	C915.659729,604.380737 917.886108,604.181519 920.535339,603.933594 
z"/>
<path fill="#4C6971" opacity="1.000000" stroke="none" 
	d="
M1.000003,534.468628 
	C5.938054,539.439880 10.753133,544.998047 15.845240,550.289673 
	C22.221598,556.915833 28.241781,564.080994 35.468243,569.646912 
	C46.245499,577.947754 57.463318,585.941833 69.399872,592.388611 
	C78.965126,597.554626 89.889603,600.194580 100.175835,604.049133 
	C101.233368,604.445374 102.051216,605.481323 102.990143,606.610229 
	C69.085205,607.000000 35.170410,607.000000 1.000000,607.000000 
	C1.000000,582.979736 1.000000,558.958496 1.000003,534.468628 
z"/>
<path fill="#4C6971" opacity="1.000000" stroke="none" 
	d="
M748.497498,4.066328 
	C748.028259,3.336474 748.014771,2.557699 748.000610,1.389462 
	C757.687561,1.000000 767.375122,1.000000 777.531372,1.000000 
	C774.574768,1.664926 771.175598,2.618846 767.718506,2.931605 
	C761.481689,3.495846 755.210266,3.676532 748.497498,4.066328 
z"/>
<path fill="#4C6971" opacity="1.000000" stroke="none" 
	d="
M1815.859741,3.875006 
	C1815.086426,3.108726 1814.705811,2.411569 1814.162598,1.357206 
	C1824.020874,1.000000 1834.041870,1.000000 1844.531372,1.000005 
	C1841.116455,1.660629 1837.255249,2.555713 1833.344238,2.926197 
	C1827.665771,3.464100 1821.951538,3.623370 1815.859741,3.875006 
z"/>
<path fill="#4C6971" opacity="1.000000" stroke="none" 
	d="
M1166.885010,605.134521 
	C1168.344116,605.320984 1169.659180,605.770752 1170.987061,606.610291 
	C1169.285645,607.000000 1167.571289,607.000000 1165.428467,607.000000 
	C1165.580322,606.465942 1166.160645,605.931885 1166.885010,605.134521 
z"/>
<path fill="#4C6971" opacity="1.000000" stroke="none" 
	d="
M1.000000,530.375000 
	C1.470042,530.004456 1.940083,530.008972 2.762474,530.027649 
	C2.622790,530.972595 2.130759,531.903442 1.319363,532.917114 
	C1.000000,532.250000 1.000000,531.500000 1.000000,530.375000 
z"/>
<path fill="#4C6971" opacity="1.000000" stroke="none" 
	d="
M1.500000,1.000000 
	C1.899438,1.323337 1.712344,1.584728 1.219358,1.892087 
	C1.000000,1.666667 1.000000,1.333333 1.500000,1.000000 
z"/>
<path fill="#4C6971" opacity="1.000000" stroke="none" 
	d="
M912.005310,244.076996 
	C917.324890,222.721878 922.550476,201.771347 927.977356,180.873062 
	C933.890625,158.101868 939.969543,135.373474 946.078003,112.653809 
	C946.352234,111.634132 947.502930,110.348045 948.471619,110.111099 
	C951.409668,109.392426 954.459045,109.128647 957.931213,108.619301 
	C957.593323,116.329163 957.445251,123.218628 956.944397,130.082352 
	C956.503479,136.124695 955.465942,142.124344 955.049988,148.167496 
	C954.234680,160.013123 953.920959,171.897095 952.928711,183.725693 
	C951.929626,195.635376 950.282288,207.489273 949.065186,219.382568 
	C948.245544,227.391739 947.715881,235.430115 946.992432,243.449646 
	C945.694702,257.834076 944.275696,272.207886 943.048889,286.598175 
	C942.238037,296.109222 941.820862,305.654541 940.964539,315.160828 
	C939.787781,328.223450 938.303528,341.258026 937.064209,354.315399 
	C936.241699,362.980438 935.617249,371.664307 934.836853,381.158722 
	C915.967163,382.127533 897.125977,383.094849 877.635559,384.095520 
	C889.195618,337.137695 900.597839,290.821167 912.005310,244.076996 
z"/>
<path fill="#4C6971" opacity="1.000000" stroke="none" 
	d="
M1598.138794,246.271820 
	C1598.423584,246.108887 1598.633667,246.263718 1598.888184,246.657898 
	C1598.690308,246.730820 1598.400635,246.628250 1598.138794,246.271820 
z"/>
<path fill="#4C6971" opacity="1.000000" stroke="none" 
	d="
M533.675415,245.014618 
	C533.970886,245.319489 533.984192,245.752258 533.999146,246.509460 
	C533.798340,246.270111 533.595825,245.706299 533.675415,245.014618 
z"/>
<path fill="#4C6971" opacity="1.000000" stroke="none" 
	d="
M612.271606,238.861145 
	C612.108887,238.576416 612.263794,238.366455 612.657898,238.111938 
	C612.730774,238.309921 612.628113,238.599411 612.271606,238.861145 
z"/>
</svg>